<svg xmlns="http://www.w3.org/2000/svg" width="42" height="41" viewBox="0 0 42 41" fill="none">
  <path fill-rule="evenodd" clip-rule="evenodd" d="M21.4396 0C10.0581 0 0.860107 9.39583 0.860107 21.0205C0.860107 30.3096 6.75245 38.1772 14.9292 40.96C15.9504 41.1668 16.3267 40.5062 16.3267 39.9523C16.3267 39.4652 16.2931 37.7969 16.2931 36.0552C10.5687 37.3097 9.37948 33.5461 9.37948 33.5461C8.45901 31.1104 7.09511 30.4831 7.09511 30.4831C5.22058 29.1952 7.22948 29.1952 7.22948 29.1952C9.31229 29.3353 10.4007 31.3573 10.4007 31.3573C12.2417 34.5537 15.2046 33.6528 16.3939 33.0923C16.5685 31.7376 17.1128 30.7967 17.6906 30.2762C13.1285 29.7891 8.32464 27.9806 8.32464 19.9061C8.32464 17.6105 9.13761 15.7287 10.4343 14.2673C10.226 13.7467 9.51386 11.5913 10.6359 8.70182C10.6359 8.70182 12.376 8.14128 16.2931 10.8573C17.9728 10.3968 19.6995 10.1632 21.4396 10.1632C23.1731 10.1632 24.9468 10.4035 26.5862 10.8573C30.5032 8.14128 32.2367 8.70182 32.2367 8.70182C33.3654 11.5913 32.6465 13.7467 32.445 14.2673C33.7753 15.7287 34.5546 17.6105 34.5546 19.9061C34.5546 27.9806 29.7507 29.7557 25.1551 30.2762C25.9009 30.9368 26.5459 32.1914 26.5459 34.1733C26.5459 36.9961 26.5123 39.2583 26.5123 39.9523C26.5123 40.5062 26.8885 41.1668 27.9098 40.96C36.0865 38.1772 41.9856 30.3096 41.9856 21.0205C42.0192 9.39583 32.7809 0 21.4396 0Z" fill="#6A43BE"/>
</svg>
