<svg xmlns="http://www.w3.org/2000/svg" width="61" height="38" viewBox="0 0 61 38" fill="none">
  <g clip-path="url(#clip0_20_35)">
    <path d="M0 0H61V38H0V0Z" fill="white"/>
    <path d="M9.35205 11.5898L15.0872 3.63013L16.4731 4.49461L10.738 12.4543L9.35205 11.5898ZM11.431 12.8865L17.1661 4.92686L18.552 5.79134L12.8169 13.751L11.431 12.8865ZM13.5099 14.1832L19.245 6.22358L20.631 7.08806L14.8958 15.0477L13.5099 14.1832Z" fill="#3C3C3C"/>
    <path d="M40.3689 30.9119L46.104 22.9522L47.49 23.8167L41.7548 31.7763L40.3689 30.9119ZM42.4478 32.2086L48.1829 24.2489L49.5689 25.1134L43.8338 33.0731L42.4478 32.2086ZM44.5267 33.5053L50.2619 25.5457L51.6478 26.4101L45.9127 34.3698L44.5267 33.5053Z" fill="#3C3C3C"/>
    <path d="M22.0408 13.8256C23.5716 11.7039 25.9241 10.2193 28.5805 9.69839C31.237 9.17747 33.9798 9.66289 36.2058 11.0479C38.4317 12.4328 39.9583 14.6039 40.4498 17.0834C40.9412 19.563 40.3573 22.1479 38.8264 24.2696L22.0408 13.8256Z" fill="#D95B65"/>
    <path d="M22.1601 13.7687C20.6328 15.8854 20.0498 18.4646 20.5395 20.9388C21.0292 23.4131 22.5513 25.5797 24.7711 26.962C26.9909 28.3443 29.7265 28.8292 32.3761 28.3099C35.0257 27.7906 37.3722 26.3097 38.8996 24.1929C39.6632 23.1346 39.9547 21.845 39.7098 20.6079C39.465 19.3708 38.7039 18.2875 37.594 17.5963C36.4841 16.9051 35.1163 16.6627 33.7915 16.9223C32.4667 17.182 31.2935 17.9224 30.5298 18.9808L22.1601 13.7687Z" fill="#2E5F9D"/>
    <path d="M30.4462 18.9675C32.0331 16.7668 31.4499 13.8177 29.1436 12.3804C26.8373 10.9432 23.6812 11.5621 22.0943 13.7628C20.5074 15.9635 21.0906 18.9126 23.3969 20.3499C25.7032 21.7871 28.8593 21.1682 30.4462 18.9675Z" fill="#D95B65"/>
    <path d="M15.0872 34.3698L9.35204 26.4102L10.738 25.5457L16.4731 33.5053L15.0872 34.3698ZM17.1661 33.0731L11.431 25.1134L12.8169 24.249L18.552 32.2086L17.1661 33.0731ZM19.245 31.7764L13.5099 23.8167L14.8958 22.9522L20.6309 30.9119L19.245 31.7764Z" fill="#3C3C3C"/>
    <path d="M46.1042 15.0478L40.3691 7.08814L41.7551 6.22366L47.4902 14.1833L46.1042 15.0478ZM48.1832 13.7511L42.4481 5.79142L43.834 4.92693L49.5691 12.8866L48.1832 13.7511ZM50.2621 12.4543L44.527 4.49469L45.9129 3.63021L51.648 11.5899L50.2621 12.4543Z" fill="#3C3C3C"/>
  </g>
  <defs>
    <clipPath id="clip0_20_35">
      <rect width="61" height="38" rx="12" fill="white"/>
    </clipPath>
  </defs>
</svg>
